%TF.GenerationSoftware,KiCad,Pcbnew,(5.1.10)-1*%
%TF.CreationDate,2022-04-27T21:55:14-04:00*%
%TF.ProjectId,Macintosh II Video Breakout,4d616369-6e74-46f7-9368-204949205669,rev?*%
%TF.SameCoordinates,Original*%
%TF.FileFunction,Legend,Top*%
%TF.FilePolarity,Positive*%
%FSLAX46Y46*%
G04 Gerber Fmt 4.6, Leading zero omitted, Abs format (unit mm)*
G04 Created by KiCad (PCBNEW (5.1.10)-1) date 2022-04-27 21:55:14*
%MOMM*%
%LPD*%
G01*
G04 APERTURE LIST*
%ADD10C,0.010000*%
%ADD11C,0.120000*%
%ADD12C,0.150000*%
G04 APERTURE END LIST*
D10*
%TO.C,G\u002A\u002A\u002A*%
G36*
X85016171Y-70109650D02*
G01*
X85037503Y-70111157D01*
X85062819Y-70113828D01*
X85093987Y-70117703D01*
X85132877Y-70122822D01*
X85135074Y-70123114D01*
X85246673Y-70137920D01*
X85327269Y-70170242D01*
X85358040Y-70182785D01*
X85389959Y-70196143D01*
X85420140Y-70209087D01*
X85445693Y-70220383D01*
X85456711Y-70225440D01*
X85464682Y-70229628D01*
X85480601Y-70238413D01*
X85503964Y-70251505D01*
X85534265Y-70268613D01*
X85571001Y-70289448D01*
X85613666Y-70313718D01*
X85661756Y-70341133D01*
X85714767Y-70371404D01*
X85772193Y-70404239D01*
X85833531Y-70439349D01*
X85898275Y-70476443D01*
X85965921Y-70515231D01*
X86035965Y-70555423D01*
X86107901Y-70596728D01*
X86181225Y-70638856D01*
X86255433Y-70681516D01*
X86330020Y-70724419D01*
X86404481Y-70767274D01*
X86478311Y-70809791D01*
X86551007Y-70851679D01*
X86622063Y-70892649D01*
X86690975Y-70932409D01*
X86757238Y-70970670D01*
X86820347Y-71007141D01*
X86879799Y-71041532D01*
X86935088Y-71073553D01*
X86985709Y-71102913D01*
X87031159Y-71129322D01*
X87070932Y-71152490D01*
X87104525Y-71172127D01*
X87131431Y-71187941D01*
X87151147Y-71199643D01*
X87163168Y-71206943D01*
X87166326Y-71208982D01*
X87182417Y-71220571D01*
X87203090Y-71236043D01*
X87226911Y-71254263D01*
X87252445Y-71274097D01*
X87278256Y-71294411D01*
X87302909Y-71314071D01*
X87324968Y-71331943D01*
X87342999Y-71346893D01*
X87355565Y-71357786D01*
X87359987Y-71362009D01*
X87372302Y-71375927D01*
X87388396Y-71395518D01*
X87407092Y-71419209D01*
X87427216Y-71445422D01*
X87447590Y-71472585D01*
X87467041Y-71499122D01*
X87484391Y-71523458D01*
X87498466Y-71544018D01*
X87508091Y-71559227D01*
X87510572Y-71563738D01*
X87517074Y-71577546D01*
X87526217Y-71598173D01*
X87537203Y-71623696D01*
X87549235Y-71652194D01*
X87561514Y-71681742D01*
X87573243Y-71710418D01*
X87583624Y-71736300D01*
X87591859Y-71757464D01*
X87597150Y-71771988D01*
X87597796Y-71773961D01*
X87600200Y-71784150D01*
X87603618Y-71802151D01*
X87607731Y-71826099D01*
X87612218Y-71854130D01*
X87616683Y-71883865D01*
X87630167Y-71976673D01*
X87633185Y-73979365D01*
X87620547Y-74079500D01*
X87615334Y-74120445D01*
X87610843Y-74153610D01*
X87606581Y-74180909D01*
X87602055Y-74204254D01*
X87596771Y-74225559D01*
X87590235Y-74246737D01*
X87581954Y-74269701D01*
X87571435Y-74296364D01*
X87558183Y-74328640D01*
X87553136Y-74340826D01*
X87508607Y-74448288D01*
X87442494Y-74536211D01*
X87422101Y-74563037D01*
X87402412Y-74588397D01*
X87384598Y-74610824D01*
X87369828Y-74628853D01*
X87359273Y-74641017D01*
X87356735Y-74643673D01*
X87345682Y-74653674D01*
X87328312Y-74668204D01*
X87306204Y-74686040D01*
X87280938Y-74705956D01*
X87254092Y-74726728D01*
X87227244Y-74747132D01*
X87201974Y-74765944D01*
X87179860Y-74781939D01*
X87166326Y-74791330D01*
X87160137Y-74795101D01*
X87145988Y-74803466D01*
X87124380Y-74816134D01*
X87095814Y-74832815D01*
X87060790Y-74853220D01*
X87019811Y-74877059D01*
X86973378Y-74904042D01*
X86921990Y-74933879D01*
X86866150Y-74966280D01*
X86806358Y-75000954D01*
X86743116Y-75037614D01*
X86676924Y-75075967D01*
X86608284Y-75115725D01*
X86537696Y-75156597D01*
X86465662Y-75198294D01*
X86392683Y-75240525D01*
X86319260Y-75283002D01*
X86245893Y-75325433D01*
X86173085Y-75367529D01*
X86101336Y-75409000D01*
X86031146Y-75449556D01*
X85963018Y-75488908D01*
X85897452Y-75526764D01*
X85834950Y-75562837D01*
X85776012Y-75596834D01*
X85721139Y-75628468D01*
X85670833Y-75657447D01*
X85625594Y-75683481D01*
X85585924Y-75706282D01*
X85552323Y-75725559D01*
X85525293Y-75741021D01*
X85505335Y-75752380D01*
X85503115Y-75753637D01*
X85490790Y-75759927D01*
X85471119Y-75769143D01*
X85445805Y-75780526D01*
X85416550Y-75793316D01*
X85385054Y-75806753D01*
X85369558Y-75813245D01*
X85335524Y-75827314D01*
X85307173Y-75838620D01*
X85282630Y-75847641D01*
X85260019Y-75854858D01*
X85237464Y-75860748D01*
X85213089Y-75865791D01*
X85185016Y-75870465D01*
X85151371Y-75875251D01*
X85110277Y-75880626D01*
X85101017Y-75881812D01*
X85059025Y-75886734D01*
X85024291Y-75889680D01*
X84994521Y-75890713D01*
X84967420Y-75889896D01*
X84940692Y-75887293D01*
X84934057Y-75886406D01*
X84918643Y-75884271D01*
X84896150Y-75881178D01*
X84869178Y-75877484D01*
X84840328Y-75873546D01*
X84829038Y-75872009D01*
X84800420Y-75867949D01*
X84777504Y-75864094D01*
X84757629Y-75859722D01*
X84738132Y-75854109D01*
X84716352Y-75846533D01*
X84689625Y-75836271D01*
X84672730Y-75829570D01*
X84641945Y-75817085D01*
X84610011Y-75803773D01*
X84579820Y-75790864D01*
X84554265Y-75779585D01*
X84543288Y-75774549D01*
X84535324Y-75770363D01*
X84519410Y-75761579D01*
X84496051Y-75748488D01*
X84465752Y-75731379D01*
X84429018Y-75710544D01*
X84386352Y-75686273D01*
X84338260Y-75658855D01*
X84285247Y-75628582D01*
X84227818Y-75595744D01*
X84166476Y-75560631D01*
X84101728Y-75523533D01*
X84034076Y-75484741D01*
X83964028Y-75444546D01*
X83892086Y-75403237D01*
X83818756Y-75361105D01*
X83744542Y-75318440D01*
X83669949Y-75275533D01*
X83595483Y-75232675D01*
X83521647Y-75190154D01*
X83448946Y-75148263D01*
X83377886Y-75107291D01*
X83308970Y-75067529D01*
X83242704Y-75029266D01*
X83179592Y-74992794D01*
X83120139Y-74958402D01*
X83064850Y-74926382D01*
X83014230Y-74897023D01*
X82968783Y-74870616D01*
X82929013Y-74847452D01*
X82895426Y-74827819D01*
X82868527Y-74812010D01*
X82848820Y-74800314D01*
X82836809Y-74793022D01*
X82833673Y-74790998D01*
X82817717Y-74779518D01*
X82797144Y-74764130D01*
X82773392Y-74745968D01*
X82747896Y-74726169D01*
X82722095Y-74705867D01*
X82697425Y-74686197D01*
X82675322Y-74668295D01*
X82657224Y-74653296D01*
X82644568Y-74642335D01*
X82640012Y-74637990D01*
X82627697Y-74624072D01*
X82611603Y-74604481D01*
X82592907Y-74580790D01*
X82572783Y-74554577D01*
X82552409Y-74527414D01*
X82532958Y-74500877D01*
X82515608Y-74476541D01*
X82501533Y-74455981D01*
X82491908Y-74440772D01*
X82489427Y-74436261D01*
X82482925Y-74422453D01*
X82473782Y-74401826D01*
X82462796Y-74376303D01*
X82450764Y-74347805D01*
X82438485Y-74318257D01*
X82426756Y-74289581D01*
X82416375Y-74263699D01*
X82408140Y-74242535D01*
X82402849Y-74228011D01*
X82402203Y-74226038D01*
X82399799Y-74215849D01*
X82396381Y-74197848D01*
X82392268Y-74173900D01*
X82387781Y-74145869D01*
X82383316Y-74116134D01*
X82369832Y-74023326D01*
X82368432Y-73022384D01*
X82367258Y-72183318D01*
X82645615Y-72183318D01*
X82645615Y-73818454D01*
X82660401Y-73930660D01*
X82664897Y-73963729D01*
X82669335Y-73994461D01*
X82673456Y-74021218D01*
X82677006Y-74042366D01*
X82679727Y-74056266D01*
X82680687Y-74059961D01*
X82685765Y-74074254D01*
X82693684Y-74094746D01*
X82703762Y-74119829D01*
X82715317Y-74147895D01*
X82727664Y-74177336D01*
X82740121Y-74206544D01*
X82752006Y-74233911D01*
X82762635Y-74257828D01*
X82771326Y-74276688D01*
X82777395Y-74288883D01*
X82779212Y-74291949D01*
X82791219Y-74308647D01*
X82807005Y-74329772D01*
X82825442Y-74353895D01*
X82845400Y-74379586D01*
X82865747Y-74405417D01*
X82885354Y-74429958D01*
X82903092Y-74451781D01*
X82917830Y-74469456D01*
X82928437Y-74481554D01*
X82932121Y-74485331D01*
X82941645Y-74493554D01*
X82957487Y-74506493D01*
X82978169Y-74522973D01*
X83002214Y-74541820D01*
X83028144Y-74561861D01*
X83035447Y-74567454D01*
X83046547Y-74575896D01*
X83057377Y-74584000D01*
X83068363Y-74592021D01*
X83079931Y-74600213D01*
X83092508Y-74608831D01*
X83106518Y-74618128D01*
X83122387Y-74628361D01*
X83140543Y-74639782D01*
X83161410Y-74652646D01*
X83185414Y-74667209D01*
X83212982Y-74683723D01*
X83244538Y-74702445D01*
X83280510Y-74723627D01*
X83321322Y-74747526D01*
X83367401Y-74774394D01*
X83419173Y-74804486D01*
X83477063Y-74838058D01*
X83541498Y-74875363D01*
X83612903Y-74916656D01*
X83691704Y-74962191D01*
X83778327Y-75012222D01*
X83825235Y-75039310D01*
X83915922Y-75091672D01*
X83998584Y-75139385D01*
X84073653Y-75182690D01*
X84141561Y-75221828D01*
X84202740Y-75257041D01*
X84257623Y-75288569D01*
X84306642Y-75316653D01*
X84350228Y-75341535D01*
X84388815Y-75363455D01*
X84422834Y-75382654D01*
X84452717Y-75399374D01*
X84478898Y-75413855D01*
X84501807Y-75426338D01*
X84521877Y-75437065D01*
X84539540Y-75446277D01*
X84555229Y-75454213D01*
X84569376Y-75461116D01*
X84582413Y-75467227D01*
X84594771Y-75472786D01*
X84606884Y-75478035D01*
X84619183Y-75483214D01*
X84627249Y-75486561D01*
X84664379Y-75501915D01*
X84694123Y-75514085D01*
X84718151Y-75523562D01*
X84738130Y-75530837D01*
X84755726Y-75536401D01*
X84772608Y-75540743D01*
X84790442Y-75544356D01*
X84810897Y-75547730D01*
X84835639Y-75551355D01*
X84858346Y-75554581D01*
X84902772Y-75560598D01*
X84940371Y-75564790D01*
X84973646Y-75567157D01*
X85005094Y-75567703D01*
X85037216Y-75566429D01*
X85072513Y-75563337D01*
X85113484Y-75558431D01*
X85140341Y-75554822D01*
X85244049Y-75540537D01*
X85360149Y-75492438D01*
X85476250Y-75444340D01*
X86160096Y-75049415D01*
X86235953Y-75005598D01*
X86309777Y-74962936D01*
X86381097Y-74921701D01*
X86449447Y-74882166D01*
X86514356Y-74844602D01*
X86575355Y-74809282D01*
X86631976Y-74776476D01*
X86683750Y-74746457D01*
X86730207Y-74719497D01*
X86770879Y-74695868D01*
X86805297Y-74675841D01*
X86832992Y-74659688D01*
X86853496Y-74647682D01*
X86866338Y-74640093D01*
X86870541Y-74637541D01*
X86882235Y-74629577D01*
X86900110Y-74616752D01*
X86922632Y-74600199D01*
X86948266Y-74581049D01*
X86975478Y-74560435D01*
X86987109Y-74551536D01*
X87077078Y-74482480D01*
X87147333Y-74391195D01*
X87167818Y-74364412D01*
X87186773Y-74339316D01*
X87203213Y-74317236D01*
X87216156Y-74299498D01*
X87224619Y-74287429D01*
X87226980Y-74283734D01*
X87231481Y-74274655D01*
X87238977Y-74258021D01*
X87248820Y-74235341D01*
X87260359Y-74208124D01*
X87272945Y-74177876D01*
X87280241Y-74160096D01*
X87324109Y-74052634D01*
X87339322Y-73935403D01*
X87354535Y-73818173D01*
X87354459Y-72999859D01*
X87354384Y-72181545D01*
X87339582Y-72069339D01*
X87335228Y-72036824D01*
X87331132Y-72007153D01*
X87327513Y-71981834D01*
X87324589Y-71962377D01*
X87322578Y-71950289D01*
X87321950Y-71947365D01*
X87318082Y-71936115D01*
X87311160Y-71918054D01*
X87301849Y-71894755D01*
X87290813Y-71867791D01*
X87278718Y-71838734D01*
X87266228Y-71809159D01*
X87254008Y-71780637D01*
X87242723Y-71754742D01*
X87233037Y-71733047D01*
X87225615Y-71717125D01*
X87221121Y-71708549D01*
X87220883Y-71708192D01*
X87208865Y-71691475D01*
X87193068Y-71670332D01*
X87174622Y-71646193D01*
X87154656Y-71620486D01*
X87134299Y-71594641D01*
X87114683Y-71570086D01*
X87096936Y-71548251D01*
X87082189Y-71530564D01*
X87071570Y-71518453D01*
X87067878Y-71514668D01*
X87043528Y-71493397D01*
X87012476Y-71468474D01*
X86976469Y-71441146D01*
X86937256Y-71412664D01*
X86896584Y-71384277D01*
X86856202Y-71357233D01*
X86817857Y-71332782D01*
X86789730Y-71315874D01*
X86774521Y-71307056D01*
X86751420Y-71293683D01*
X86720996Y-71276084D01*
X86683820Y-71254590D01*
X86640459Y-71229528D01*
X86591485Y-71201228D01*
X86537465Y-71170018D01*
X86478970Y-71136227D01*
X86416568Y-71100185D01*
X86350830Y-71062220D01*
X86282324Y-71022662D01*
X86211619Y-70981838D01*
X86139287Y-70940079D01*
X86083776Y-70908035D01*
X85470148Y-70553823D01*
X85356271Y-70506591D01*
X85242394Y-70459358D01*
X85137072Y-70445040D01*
X85103824Y-70440726D01*
X85071756Y-70436941D01*
X85042872Y-70433893D01*
X85019173Y-70431790D01*
X85002660Y-70430840D01*
X85000000Y-70430807D01*
X84985425Y-70431512D01*
X84963213Y-70433428D01*
X84935390Y-70436340D01*
X84903983Y-70440033D01*
X84871019Y-70444293D01*
X84864513Y-70445181D01*
X84760777Y-70459470D01*
X84652032Y-70504078D01*
X84619763Y-70517480D01*
X84588937Y-70530588D01*
X84561236Y-70542662D01*
X84538341Y-70552965D01*
X84521935Y-70560757D01*
X84516423Y-70563629D01*
X84509252Y-70567706D01*
X84494090Y-70576396D01*
X84471408Y-70589430D01*
X84441676Y-70606536D01*
X84405364Y-70627442D01*
X84362941Y-70651880D01*
X84314878Y-70679576D01*
X84261644Y-70710261D01*
X84203710Y-70743664D01*
X84141545Y-70779514D01*
X84075620Y-70817539D01*
X84006404Y-70857470D01*
X83934367Y-70899034D01*
X83859980Y-70941962D01*
X83808153Y-70971874D01*
X83126750Y-71365176D01*
X83027084Y-71441348D01*
X82998852Y-71462950D01*
X82975731Y-71480913D01*
X82956520Y-71496472D01*
X82940019Y-71510864D01*
X82925028Y-71525327D01*
X82910347Y-71541096D01*
X82894775Y-71559408D01*
X82877113Y-71581500D01*
X82856160Y-71608609D01*
X82830716Y-71641972D01*
X82824638Y-71649957D01*
X82807676Y-71672370D01*
X82794209Y-71690788D01*
X82783217Y-71707051D01*
X82773678Y-71722998D01*
X82764571Y-71740471D01*
X82754876Y-71761309D01*
X82743570Y-71787351D01*
X82729634Y-71820440D01*
X82728410Y-71823361D01*
X82715636Y-71854014D01*
X82703917Y-71882410D01*
X82693861Y-71907054D01*
X82686077Y-71926451D01*
X82681173Y-71939105D01*
X82679977Y-71942480D01*
X82678010Y-71951434D01*
X82675068Y-71968495D01*
X82671393Y-71992079D01*
X82667228Y-72020601D01*
X82662814Y-72052474D01*
X82660452Y-72070226D01*
X82645615Y-72183318D01*
X82367258Y-72183318D01*
X82367031Y-72021441D01*
X82381755Y-71908692D01*
X82386202Y-71875496D01*
X82390553Y-71844592D01*
X82394560Y-71817623D01*
X82397975Y-71796233D01*
X82400549Y-71782063D01*
X82401451Y-71778173D01*
X82405791Y-71765213D01*
X82413286Y-71745473D01*
X82423217Y-71720636D01*
X82434865Y-71692381D01*
X82447511Y-71662391D01*
X82460436Y-71632347D01*
X82472921Y-71603929D01*
X82484246Y-71578819D01*
X82493693Y-71558698D01*
X82500541Y-71545247D01*
X82502503Y-71541942D01*
X82509351Y-71532208D01*
X82521099Y-71516260D01*
X82536629Y-71495584D01*
X82554824Y-71471663D01*
X82574568Y-71445982D01*
X82579748Y-71439289D01*
X82601621Y-71411225D01*
X82619267Y-71389236D01*
X82634361Y-71371614D01*
X82648581Y-71356653D01*
X82663605Y-71342644D01*
X82681109Y-71327881D01*
X82702769Y-71310656D01*
X82716938Y-71299611D01*
X82742756Y-71279658D01*
X82768648Y-71259850D01*
X82792564Y-71241740D01*
X82812452Y-71226885D01*
X82823903Y-71218519D01*
X82831544Y-71213629D01*
X82847224Y-71204113D01*
X82870518Y-71190220D01*
X82900999Y-71172198D01*
X82938240Y-71150296D01*
X82981815Y-71124763D01*
X83031298Y-71095847D01*
X83086261Y-71063796D01*
X83146278Y-71028859D01*
X83210923Y-70991284D01*
X83279769Y-70951320D01*
X83352389Y-70909215D01*
X83428357Y-70865217D01*
X83507247Y-70819576D01*
X83588632Y-70772540D01*
X83672085Y-70724356D01*
X83690686Y-70713623D01*
X84523276Y-70233254D01*
X84632771Y-70187777D01*
X84667585Y-70173411D01*
X84696518Y-70161875D01*
X84721467Y-70152683D01*
X84744324Y-70145348D01*
X84766985Y-70139383D01*
X84791344Y-70134303D01*
X84819295Y-70129622D01*
X84852734Y-70124852D01*
X84893554Y-70119508D01*
X84903867Y-70118187D01*
X84933309Y-70114469D01*
X84957392Y-70111717D01*
X84977984Y-70109970D01*
X84996954Y-70109268D01*
X85016171Y-70109650D01*
G37*
X85016171Y-70109650D02*
X85037503Y-70111157D01*
X85062819Y-70113828D01*
X85093987Y-70117703D01*
X85132877Y-70122822D01*
X85135074Y-70123114D01*
X85246673Y-70137920D01*
X85327269Y-70170242D01*
X85358040Y-70182785D01*
X85389959Y-70196143D01*
X85420140Y-70209087D01*
X85445693Y-70220383D01*
X85456711Y-70225440D01*
X85464682Y-70229628D01*
X85480601Y-70238413D01*
X85503964Y-70251505D01*
X85534265Y-70268613D01*
X85571001Y-70289448D01*
X85613666Y-70313718D01*
X85661756Y-70341133D01*
X85714767Y-70371404D01*
X85772193Y-70404239D01*
X85833531Y-70439349D01*
X85898275Y-70476443D01*
X85965921Y-70515231D01*
X86035965Y-70555423D01*
X86107901Y-70596728D01*
X86181225Y-70638856D01*
X86255433Y-70681516D01*
X86330020Y-70724419D01*
X86404481Y-70767274D01*
X86478311Y-70809791D01*
X86551007Y-70851679D01*
X86622063Y-70892649D01*
X86690975Y-70932409D01*
X86757238Y-70970670D01*
X86820347Y-71007141D01*
X86879799Y-71041532D01*
X86935088Y-71073553D01*
X86985709Y-71102913D01*
X87031159Y-71129322D01*
X87070932Y-71152490D01*
X87104525Y-71172127D01*
X87131431Y-71187941D01*
X87151147Y-71199643D01*
X87163168Y-71206943D01*
X87166326Y-71208982D01*
X87182417Y-71220571D01*
X87203090Y-71236043D01*
X87226911Y-71254263D01*
X87252445Y-71274097D01*
X87278256Y-71294411D01*
X87302909Y-71314071D01*
X87324968Y-71331943D01*
X87342999Y-71346893D01*
X87355565Y-71357786D01*
X87359987Y-71362009D01*
X87372302Y-71375927D01*
X87388396Y-71395518D01*
X87407092Y-71419209D01*
X87427216Y-71445422D01*
X87447590Y-71472585D01*
X87467041Y-71499122D01*
X87484391Y-71523458D01*
X87498466Y-71544018D01*
X87508091Y-71559227D01*
X87510572Y-71563738D01*
X87517074Y-71577546D01*
X87526217Y-71598173D01*
X87537203Y-71623696D01*
X87549235Y-71652194D01*
X87561514Y-71681742D01*
X87573243Y-71710418D01*
X87583624Y-71736300D01*
X87591859Y-71757464D01*
X87597150Y-71771988D01*
X87597796Y-71773961D01*
X87600200Y-71784150D01*
X87603618Y-71802151D01*
X87607731Y-71826099D01*
X87612218Y-71854130D01*
X87616683Y-71883865D01*
X87630167Y-71976673D01*
X87633185Y-73979365D01*
X87620547Y-74079500D01*
X87615334Y-74120445D01*
X87610843Y-74153610D01*
X87606581Y-74180909D01*
X87602055Y-74204254D01*
X87596771Y-74225559D01*
X87590235Y-74246737D01*
X87581954Y-74269701D01*
X87571435Y-74296364D01*
X87558183Y-74328640D01*
X87553136Y-74340826D01*
X87508607Y-74448288D01*
X87442494Y-74536211D01*
X87422101Y-74563037D01*
X87402412Y-74588397D01*
X87384598Y-74610824D01*
X87369828Y-74628853D01*
X87359273Y-74641017D01*
X87356735Y-74643673D01*
X87345682Y-74653674D01*
X87328312Y-74668204D01*
X87306204Y-74686040D01*
X87280938Y-74705956D01*
X87254092Y-74726728D01*
X87227244Y-74747132D01*
X87201974Y-74765944D01*
X87179860Y-74781939D01*
X87166326Y-74791330D01*
X87160137Y-74795101D01*
X87145988Y-74803466D01*
X87124380Y-74816134D01*
X87095814Y-74832815D01*
X87060790Y-74853220D01*
X87019811Y-74877059D01*
X86973378Y-74904042D01*
X86921990Y-74933879D01*
X86866150Y-74966280D01*
X86806358Y-75000954D01*
X86743116Y-75037614D01*
X86676924Y-75075967D01*
X86608284Y-75115725D01*
X86537696Y-75156597D01*
X86465662Y-75198294D01*
X86392683Y-75240525D01*
X86319260Y-75283002D01*
X86245893Y-75325433D01*
X86173085Y-75367529D01*
X86101336Y-75409000D01*
X86031146Y-75449556D01*
X85963018Y-75488908D01*
X85897452Y-75526764D01*
X85834950Y-75562837D01*
X85776012Y-75596834D01*
X85721139Y-75628468D01*
X85670833Y-75657447D01*
X85625594Y-75683481D01*
X85585924Y-75706282D01*
X85552323Y-75725559D01*
X85525293Y-75741021D01*
X85505335Y-75752380D01*
X85503115Y-75753637D01*
X85490790Y-75759927D01*
X85471119Y-75769143D01*
X85445805Y-75780526D01*
X85416550Y-75793316D01*
X85385054Y-75806753D01*
X85369558Y-75813245D01*
X85335524Y-75827314D01*
X85307173Y-75838620D01*
X85282630Y-75847641D01*
X85260019Y-75854858D01*
X85237464Y-75860748D01*
X85213089Y-75865791D01*
X85185016Y-75870465D01*
X85151371Y-75875251D01*
X85110277Y-75880626D01*
X85101017Y-75881812D01*
X85059025Y-75886734D01*
X85024291Y-75889680D01*
X84994521Y-75890713D01*
X84967420Y-75889896D01*
X84940692Y-75887293D01*
X84934057Y-75886406D01*
X84918643Y-75884271D01*
X84896150Y-75881178D01*
X84869178Y-75877484D01*
X84840328Y-75873546D01*
X84829038Y-75872009D01*
X84800420Y-75867949D01*
X84777504Y-75864094D01*
X84757629Y-75859722D01*
X84738132Y-75854109D01*
X84716352Y-75846533D01*
X84689625Y-75836271D01*
X84672730Y-75829570D01*
X84641945Y-75817085D01*
X84610011Y-75803773D01*
X84579820Y-75790864D01*
X84554265Y-75779585D01*
X84543288Y-75774549D01*
X84535324Y-75770363D01*
X84519410Y-75761579D01*
X84496051Y-75748488D01*
X84465752Y-75731379D01*
X84429018Y-75710544D01*
X84386352Y-75686273D01*
X84338260Y-75658855D01*
X84285247Y-75628582D01*
X84227818Y-75595744D01*
X84166476Y-75560631D01*
X84101728Y-75523533D01*
X84034076Y-75484741D01*
X83964028Y-75444546D01*
X83892086Y-75403237D01*
X83818756Y-75361105D01*
X83744542Y-75318440D01*
X83669949Y-75275533D01*
X83595483Y-75232675D01*
X83521647Y-75190154D01*
X83448946Y-75148263D01*
X83377886Y-75107291D01*
X83308970Y-75067529D01*
X83242704Y-75029266D01*
X83179592Y-74992794D01*
X83120139Y-74958402D01*
X83064850Y-74926382D01*
X83014230Y-74897023D01*
X82968783Y-74870616D01*
X82929013Y-74847452D01*
X82895426Y-74827819D01*
X82868527Y-74812010D01*
X82848820Y-74800314D01*
X82836809Y-74793022D01*
X82833673Y-74790998D01*
X82817717Y-74779518D01*
X82797144Y-74764130D01*
X82773392Y-74745968D01*
X82747896Y-74726169D01*
X82722095Y-74705867D01*
X82697425Y-74686197D01*
X82675322Y-74668295D01*
X82657224Y-74653296D01*
X82644568Y-74642335D01*
X82640012Y-74637990D01*
X82627697Y-74624072D01*
X82611603Y-74604481D01*
X82592907Y-74580790D01*
X82572783Y-74554577D01*
X82552409Y-74527414D01*
X82532958Y-74500877D01*
X82515608Y-74476541D01*
X82501533Y-74455981D01*
X82491908Y-74440772D01*
X82489427Y-74436261D01*
X82482925Y-74422453D01*
X82473782Y-74401826D01*
X82462796Y-74376303D01*
X82450764Y-74347805D01*
X82438485Y-74318257D01*
X82426756Y-74289581D01*
X82416375Y-74263699D01*
X82408140Y-74242535D01*
X82402849Y-74228011D01*
X82402203Y-74226038D01*
X82399799Y-74215849D01*
X82396381Y-74197848D01*
X82392268Y-74173900D01*
X82387781Y-74145869D01*
X82383316Y-74116134D01*
X82369832Y-74023326D01*
X82368432Y-73022384D01*
X82367258Y-72183318D01*
X82645615Y-72183318D01*
X82645615Y-73818454D01*
X82660401Y-73930660D01*
X82664897Y-73963729D01*
X82669335Y-73994461D01*
X82673456Y-74021218D01*
X82677006Y-74042366D01*
X82679727Y-74056266D01*
X82680687Y-74059961D01*
X82685765Y-74074254D01*
X82693684Y-74094746D01*
X82703762Y-74119829D01*
X82715317Y-74147895D01*
X82727664Y-74177336D01*
X82740121Y-74206544D01*
X82752006Y-74233911D01*
X82762635Y-74257828D01*
X82771326Y-74276688D01*
X82777395Y-74288883D01*
X82779212Y-74291949D01*
X82791219Y-74308647D01*
X82807005Y-74329772D01*
X82825442Y-74353895D01*
X82845400Y-74379586D01*
X82865747Y-74405417D01*
X82885354Y-74429958D01*
X82903092Y-74451781D01*
X82917830Y-74469456D01*
X82928437Y-74481554D01*
X82932121Y-74485331D01*
X82941645Y-74493554D01*
X82957487Y-74506493D01*
X82978169Y-74522973D01*
X83002214Y-74541820D01*
X83028144Y-74561861D01*
X83035447Y-74567454D01*
X83046547Y-74575896D01*
X83057377Y-74584000D01*
X83068363Y-74592021D01*
X83079931Y-74600213D01*
X83092508Y-74608831D01*
X83106518Y-74618128D01*
X83122387Y-74628361D01*
X83140543Y-74639782D01*
X83161410Y-74652646D01*
X83185414Y-74667209D01*
X83212982Y-74683723D01*
X83244538Y-74702445D01*
X83280510Y-74723627D01*
X83321322Y-74747526D01*
X83367401Y-74774394D01*
X83419173Y-74804486D01*
X83477063Y-74838058D01*
X83541498Y-74875363D01*
X83612903Y-74916656D01*
X83691704Y-74962191D01*
X83778327Y-75012222D01*
X83825235Y-75039310D01*
X83915922Y-75091672D01*
X83998584Y-75139385D01*
X84073653Y-75182690D01*
X84141561Y-75221828D01*
X84202740Y-75257041D01*
X84257623Y-75288569D01*
X84306642Y-75316653D01*
X84350228Y-75341535D01*
X84388815Y-75363455D01*
X84422834Y-75382654D01*
X84452717Y-75399374D01*
X84478898Y-75413855D01*
X84501807Y-75426338D01*
X84521877Y-75437065D01*
X84539540Y-75446277D01*
X84555229Y-75454213D01*
X84569376Y-75461116D01*
X84582413Y-75467227D01*
X84594771Y-75472786D01*
X84606884Y-75478035D01*
X84619183Y-75483214D01*
X84627249Y-75486561D01*
X84664379Y-75501915D01*
X84694123Y-75514085D01*
X84718151Y-75523562D01*
X84738130Y-75530837D01*
X84755726Y-75536401D01*
X84772608Y-75540743D01*
X84790442Y-75544356D01*
X84810897Y-75547730D01*
X84835639Y-75551355D01*
X84858346Y-75554581D01*
X84902772Y-75560598D01*
X84940371Y-75564790D01*
X84973646Y-75567157D01*
X85005094Y-75567703D01*
X85037216Y-75566429D01*
X85072513Y-75563337D01*
X85113484Y-75558431D01*
X85140341Y-75554822D01*
X85244049Y-75540537D01*
X85360149Y-75492438D01*
X85476250Y-75444340D01*
X86160096Y-75049415D01*
X86235953Y-75005598D01*
X86309777Y-74962936D01*
X86381097Y-74921701D01*
X86449447Y-74882166D01*
X86514356Y-74844602D01*
X86575355Y-74809282D01*
X86631976Y-74776476D01*
X86683750Y-74746457D01*
X86730207Y-74719497D01*
X86770879Y-74695868D01*
X86805297Y-74675841D01*
X86832992Y-74659688D01*
X86853496Y-74647682D01*
X86866338Y-74640093D01*
X86870541Y-74637541D01*
X86882235Y-74629577D01*
X86900110Y-74616752D01*
X86922632Y-74600199D01*
X86948266Y-74581049D01*
X86975478Y-74560435D01*
X86987109Y-74551536D01*
X87077078Y-74482480D01*
X87147333Y-74391195D01*
X87167818Y-74364412D01*
X87186773Y-74339316D01*
X87203213Y-74317236D01*
X87216156Y-74299498D01*
X87224619Y-74287429D01*
X87226980Y-74283734D01*
X87231481Y-74274655D01*
X87238977Y-74258021D01*
X87248820Y-74235341D01*
X87260359Y-74208124D01*
X87272945Y-74177876D01*
X87280241Y-74160096D01*
X87324109Y-74052634D01*
X87339322Y-73935403D01*
X87354535Y-73818173D01*
X87354459Y-72999859D01*
X87354384Y-72181545D01*
X87339582Y-72069339D01*
X87335228Y-72036824D01*
X87331132Y-72007153D01*
X87327513Y-71981834D01*
X87324589Y-71962377D01*
X87322578Y-71950289D01*
X87321950Y-71947365D01*
X87318082Y-71936115D01*
X87311160Y-71918054D01*
X87301849Y-71894755D01*
X87290813Y-71867791D01*
X87278718Y-71838734D01*
X87266228Y-71809159D01*
X87254008Y-71780637D01*
X87242723Y-71754742D01*
X87233037Y-71733047D01*
X87225615Y-71717125D01*
X87221121Y-71708549D01*
X87220883Y-71708192D01*
X87208865Y-71691475D01*
X87193068Y-71670332D01*
X87174622Y-71646193D01*
X87154656Y-71620486D01*
X87134299Y-71594641D01*
X87114683Y-71570086D01*
X87096936Y-71548251D01*
X87082189Y-71530564D01*
X87071570Y-71518453D01*
X87067878Y-71514668D01*
X87043528Y-71493397D01*
X87012476Y-71468474D01*
X86976469Y-71441146D01*
X86937256Y-71412664D01*
X86896584Y-71384277D01*
X86856202Y-71357233D01*
X86817857Y-71332782D01*
X86789730Y-71315874D01*
X86774521Y-71307056D01*
X86751420Y-71293683D01*
X86720996Y-71276084D01*
X86683820Y-71254590D01*
X86640459Y-71229528D01*
X86591485Y-71201228D01*
X86537465Y-71170018D01*
X86478970Y-71136227D01*
X86416568Y-71100185D01*
X86350830Y-71062220D01*
X86282324Y-71022662D01*
X86211619Y-70981838D01*
X86139287Y-70940079D01*
X86083776Y-70908035D01*
X85470148Y-70553823D01*
X85356271Y-70506591D01*
X85242394Y-70459358D01*
X85137072Y-70445040D01*
X85103824Y-70440726D01*
X85071756Y-70436941D01*
X85042872Y-70433893D01*
X85019173Y-70431790D01*
X85002660Y-70430840D01*
X85000000Y-70430807D01*
X84985425Y-70431512D01*
X84963213Y-70433428D01*
X84935390Y-70436340D01*
X84903983Y-70440033D01*
X84871019Y-70444293D01*
X84864513Y-70445181D01*
X84760777Y-70459470D01*
X84652032Y-70504078D01*
X84619763Y-70517480D01*
X84588937Y-70530588D01*
X84561236Y-70542662D01*
X84538341Y-70552965D01*
X84521935Y-70560757D01*
X84516423Y-70563629D01*
X84509252Y-70567706D01*
X84494090Y-70576396D01*
X84471408Y-70589430D01*
X84441676Y-70606536D01*
X84405364Y-70627442D01*
X84362941Y-70651880D01*
X84314878Y-70679576D01*
X84261644Y-70710261D01*
X84203710Y-70743664D01*
X84141545Y-70779514D01*
X84075620Y-70817539D01*
X84006404Y-70857470D01*
X83934367Y-70899034D01*
X83859980Y-70941962D01*
X83808153Y-70971874D01*
X83126750Y-71365176D01*
X83027084Y-71441348D01*
X82998852Y-71462950D01*
X82975731Y-71480913D01*
X82956520Y-71496472D01*
X82940019Y-71510864D01*
X82925028Y-71525327D01*
X82910347Y-71541096D01*
X82894775Y-71559408D01*
X82877113Y-71581500D01*
X82856160Y-71608609D01*
X82830716Y-71641972D01*
X82824638Y-71649957D01*
X82807676Y-71672370D01*
X82794209Y-71690788D01*
X82783217Y-71707051D01*
X82773678Y-71722998D01*
X82764571Y-71740471D01*
X82754876Y-71761309D01*
X82743570Y-71787351D01*
X82729634Y-71820440D01*
X82728410Y-71823361D01*
X82715636Y-71854014D01*
X82703917Y-71882410D01*
X82693861Y-71907054D01*
X82686077Y-71926451D01*
X82681173Y-71939105D01*
X82679977Y-71942480D01*
X82678010Y-71951434D01*
X82675068Y-71968495D01*
X82671393Y-71992079D01*
X82667228Y-72020601D01*
X82662814Y-72052474D01*
X82660452Y-72070226D01*
X82645615Y-72183318D01*
X82367258Y-72183318D01*
X82367031Y-72021441D01*
X82381755Y-71908692D01*
X82386202Y-71875496D01*
X82390553Y-71844592D01*
X82394560Y-71817623D01*
X82397975Y-71796233D01*
X82400549Y-71782063D01*
X82401451Y-71778173D01*
X82405791Y-71765213D01*
X82413286Y-71745473D01*
X82423217Y-71720636D01*
X82434865Y-71692381D01*
X82447511Y-71662391D01*
X82460436Y-71632347D01*
X82472921Y-71603929D01*
X82484246Y-71578819D01*
X82493693Y-71558698D01*
X82500541Y-71545247D01*
X82502503Y-71541942D01*
X82509351Y-71532208D01*
X82521099Y-71516260D01*
X82536629Y-71495584D01*
X82554824Y-71471663D01*
X82574568Y-71445982D01*
X82579748Y-71439289D01*
X82601621Y-71411225D01*
X82619267Y-71389236D01*
X82634361Y-71371614D01*
X82648581Y-71356653D01*
X82663605Y-71342644D01*
X82681109Y-71327881D01*
X82702769Y-71310656D01*
X82716938Y-71299611D01*
X82742756Y-71279658D01*
X82768648Y-71259850D01*
X82792564Y-71241740D01*
X82812452Y-71226885D01*
X82823903Y-71218519D01*
X82831544Y-71213629D01*
X82847224Y-71204113D01*
X82870518Y-71190220D01*
X82900999Y-71172198D01*
X82938240Y-71150296D01*
X82981815Y-71124763D01*
X83031298Y-71095847D01*
X83086261Y-71063796D01*
X83146278Y-71028859D01*
X83210923Y-70991284D01*
X83279769Y-70951320D01*
X83352389Y-70909215D01*
X83428357Y-70865217D01*
X83507247Y-70819576D01*
X83588632Y-70772540D01*
X83672085Y-70724356D01*
X83690686Y-70713623D01*
X84523276Y-70233254D01*
X84632771Y-70187777D01*
X84667585Y-70173411D01*
X84696518Y-70161875D01*
X84721467Y-70152683D01*
X84744324Y-70145348D01*
X84766985Y-70139383D01*
X84791344Y-70134303D01*
X84819295Y-70129622D01*
X84852734Y-70124852D01*
X84893554Y-70119508D01*
X84903867Y-70118187D01*
X84933309Y-70114469D01*
X84957392Y-70111717D01*
X84977984Y-70109970D01*
X84996954Y-70109268D01*
X85016171Y-70109650D01*
G36*
X83581383Y-74054517D02*
G01*
X83588568Y-74057732D01*
X83603285Y-74065352D01*
X83624627Y-74076861D01*
X83651688Y-74091739D01*
X83683562Y-74109469D01*
X83719343Y-74129533D01*
X83758124Y-74151414D01*
X83798999Y-74174592D01*
X83841063Y-74198550D01*
X83883409Y-74222771D01*
X83925130Y-74246736D01*
X83965320Y-74269927D01*
X84003074Y-74291827D01*
X84037485Y-74311917D01*
X84067647Y-74329680D01*
X84092653Y-74344597D01*
X84111598Y-74356151D01*
X84123575Y-74363823D01*
X84127162Y-74366455D01*
X84135339Y-74376367D01*
X84143772Y-74390451D01*
X84145774Y-74394557D01*
X84148953Y-74402665D01*
X84151295Y-74412184D01*
X84152923Y-74424669D01*
X84153957Y-74441672D01*
X84154520Y-74464749D01*
X84154732Y-74495452D01*
X84154746Y-74509346D01*
X84154464Y-74548855D01*
X84153388Y-74579860D01*
X84151177Y-74603616D01*
X84147489Y-74621377D01*
X84141983Y-74634398D01*
X84134317Y-74643935D01*
X84124150Y-74651240D01*
X84114828Y-74655942D01*
X84097081Y-74662794D01*
X84082160Y-74664710D01*
X84065459Y-74661902D01*
X84054826Y-74658739D01*
X84047643Y-74655372D01*
X84032942Y-74647621D01*
X84011652Y-74636016D01*
X83984700Y-74621086D01*
X83953012Y-74603361D01*
X83917515Y-74583372D01*
X83879137Y-74561647D01*
X83838805Y-74538716D01*
X83797445Y-74515110D01*
X83755985Y-74491357D01*
X83715351Y-74467988D01*
X83676471Y-74445531D01*
X83640272Y-74424518D01*
X83607681Y-74405477D01*
X83579624Y-74388938D01*
X83557029Y-74375431D01*
X83540823Y-74365486D01*
X83534615Y-74361491D01*
X83519329Y-74350527D01*
X83507645Y-74339635D01*
X83499081Y-74327318D01*
X83493152Y-74312077D01*
X83489376Y-74292415D01*
X83487269Y-74266834D01*
X83486347Y-74233835D01*
X83486168Y-74211384D01*
X83486357Y-74181188D01*
X83487109Y-74153458D01*
X83488330Y-74130186D01*
X83489925Y-74113367D01*
X83491141Y-74106750D01*
X83502180Y-74083672D01*
X83519812Y-74066096D01*
X83541991Y-74055205D01*
X83566672Y-74052183D01*
X83581383Y-74054517D01*
G37*
X83581383Y-74054517D02*
X83588568Y-74057732D01*
X83603285Y-74065352D01*
X83624627Y-74076861D01*
X83651688Y-74091739D01*
X83683562Y-74109469D01*
X83719343Y-74129533D01*
X83758124Y-74151414D01*
X83798999Y-74174592D01*
X83841063Y-74198550D01*
X83883409Y-74222771D01*
X83925130Y-74246736D01*
X83965320Y-74269927D01*
X84003074Y-74291827D01*
X84037485Y-74311917D01*
X84067647Y-74329680D01*
X84092653Y-74344597D01*
X84111598Y-74356151D01*
X84123575Y-74363823D01*
X84127162Y-74366455D01*
X84135339Y-74376367D01*
X84143772Y-74390451D01*
X84145774Y-74394557D01*
X84148953Y-74402665D01*
X84151295Y-74412184D01*
X84152923Y-74424669D01*
X84153957Y-74441672D01*
X84154520Y-74464749D01*
X84154732Y-74495452D01*
X84154746Y-74509346D01*
X84154464Y-74548855D01*
X84153388Y-74579860D01*
X84151177Y-74603616D01*
X84147489Y-74621377D01*
X84141983Y-74634398D01*
X84134317Y-74643935D01*
X84124150Y-74651240D01*
X84114828Y-74655942D01*
X84097081Y-74662794D01*
X84082160Y-74664710D01*
X84065459Y-74661902D01*
X84054826Y-74658739D01*
X84047643Y-74655372D01*
X84032942Y-74647621D01*
X84011652Y-74636016D01*
X83984700Y-74621086D01*
X83953012Y-74603361D01*
X83917515Y-74583372D01*
X83879137Y-74561647D01*
X83838805Y-74538716D01*
X83797445Y-74515110D01*
X83755985Y-74491357D01*
X83715351Y-74467988D01*
X83676471Y-74445531D01*
X83640272Y-74424518D01*
X83607681Y-74405477D01*
X83579624Y-74388938D01*
X83557029Y-74375431D01*
X83540823Y-74365486D01*
X83534615Y-74361491D01*
X83519329Y-74350527D01*
X83507645Y-74339635D01*
X83499081Y-74327318D01*
X83493152Y-74312077D01*
X83489376Y-74292415D01*
X83487269Y-74266834D01*
X83486347Y-74233835D01*
X83486168Y-74211384D01*
X83486357Y-74181188D01*
X83487109Y-74153458D01*
X83488330Y-74130186D01*
X83489925Y-74113367D01*
X83491141Y-74106750D01*
X83502180Y-74083672D01*
X83519812Y-74066096D01*
X83541991Y-74055205D01*
X83566672Y-74052183D01*
X83581383Y-74054517D01*
G36*
X84331503Y-73080743D02*
G01*
X84343425Y-73084064D01*
X84358256Y-73090174D01*
X84377129Y-73099529D01*
X84401177Y-73112587D01*
X84431533Y-73129804D01*
X84462692Y-73147789D01*
X84488268Y-73162870D01*
X84511814Y-73177237D01*
X84531625Y-73189815D01*
X84545998Y-73199527D01*
X84552438Y-73204510D01*
X84557360Y-73208961D01*
X84561656Y-73213136D01*
X84565371Y-73217693D01*
X84568545Y-73223291D01*
X84571221Y-73230588D01*
X84573442Y-73240241D01*
X84575249Y-73252909D01*
X84576686Y-73269249D01*
X84577794Y-73289920D01*
X84578616Y-73315579D01*
X84579195Y-73346885D01*
X84579572Y-73384495D01*
X84579790Y-73429067D01*
X84579892Y-73481259D01*
X84579920Y-73541730D01*
X84579916Y-73611137D01*
X84579915Y-73631179D01*
X84579902Y-73701636D01*
X84579856Y-73762986D01*
X84579763Y-73815891D01*
X84579609Y-73861013D01*
X84579380Y-73899015D01*
X84579061Y-73930559D01*
X84578638Y-73956306D01*
X84578098Y-73976919D01*
X84577426Y-73993061D01*
X84576607Y-74005393D01*
X84575628Y-74014577D01*
X84574474Y-74021276D01*
X84573132Y-74026152D01*
X84571587Y-74029867D01*
X84571367Y-74030306D01*
X84562021Y-74044329D01*
X84550821Y-74055828D01*
X84549952Y-74056487D01*
X84532266Y-74064504D01*
X84510033Y-74067766D01*
X84487436Y-74065903D01*
X84477346Y-74062947D01*
X84466514Y-74057885D01*
X84449035Y-74048721D01*
X84426603Y-74036434D01*
X84400916Y-74022004D01*
X84373669Y-74006408D01*
X84346559Y-73990625D01*
X84321282Y-73975635D01*
X84299533Y-73962416D01*
X84283010Y-73951946D01*
X84273679Y-73945424D01*
X84268150Y-73940934D01*
X84263325Y-73936435D01*
X84259158Y-73931265D01*
X84255599Y-73924763D01*
X84252601Y-73916267D01*
X84250115Y-73905114D01*
X84248095Y-73890643D01*
X84246491Y-73872193D01*
X84245255Y-73849101D01*
X84244340Y-73820705D01*
X84243697Y-73786345D01*
X84243278Y-73745357D01*
X84243035Y-73697081D01*
X84242921Y-73640854D01*
X84242886Y-73576015D01*
X84242884Y-73521487D01*
X84242952Y-73441684D01*
X84243159Y-73371510D01*
X84243505Y-73310826D01*
X84243993Y-73259494D01*
X84244624Y-73217376D01*
X84245401Y-73184331D01*
X84246326Y-73160222D01*
X84247401Y-73144910D01*
X84248235Y-73139382D01*
X84258528Y-73116098D01*
X84275480Y-73097005D01*
X84296755Y-73084562D01*
X84301853Y-73082943D01*
X84311850Y-73080639D01*
X84321356Y-73079754D01*
X84331503Y-73080743D01*
G37*
X84331503Y-73080743D02*
X84343425Y-73084064D01*
X84358256Y-73090174D01*
X84377129Y-73099529D01*
X84401177Y-73112587D01*
X84431533Y-73129804D01*
X84462692Y-73147789D01*
X84488268Y-73162870D01*
X84511814Y-73177237D01*
X84531625Y-73189815D01*
X84545998Y-73199527D01*
X84552438Y-73204510D01*
X84557360Y-73208961D01*
X84561656Y-73213136D01*
X84565371Y-73217693D01*
X84568545Y-73223291D01*
X84571221Y-73230588D01*
X84573442Y-73240241D01*
X84575249Y-73252909D01*
X84576686Y-73269249D01*
X84577794Y-73289920D01*
X84578616Y-73315579D01*
X84579195Y-73346885D01*
X84579572Y-73384495D01*
X84579790Y-73429067D01*
X84579892Y-73481259D01*
X84579920Y-73541730D01*
X84579916Y-73611137D01*
X84579915Y-73631179D01*
X84579902Y-73701636D01*
X84579856Y-73762986D01*
X84579763Y-73815891D01*
X84579609Y-73861013D01*
X84579380Y-73899015D01*
X84579061Y-73930559D01*
X84578638Y-73956306D01*
X84578098Y-73976919D01*
X84577426Y-73993061D01*
X84576607Y-74005393D01*
X84575628Y-74014577D01*
X84574474Y-74021276D01*
X84573132Y-74026152D01*
X84571587Y-74029867D01*
X84571367Y-74030306D01*
X84562021Y-74044329D01*
X84550821Y-74055828D01*
X84549952Y-74056487D01*
X84532266Y-74064504D01*
X84510033Y-74067766D01*
X84487436Y-74065903D01*
X84477346Y-74062947D01*
X84466514Y-74057885D01*
X84449035Y-74048721D01*
X84426603Y-74036434D01*
X84400916Y-74022004D01*
X84373669Y-74006408D01*
X84346559Y-73990625D01*
X84321282Y-73975635D01*
X84299533Y-73962416D01*
X84283010Y-73951946D01*
X84273679Y-73945424D01*
X84268150Y-73940934D01*
X84263325Y-73936435D01*
X84259158Y-73931265D01*
X84255599Y-73924763D01*
X84252601Y-73916267D01*
X84250115Y-73905114D01*
X84248095Y-73890643D01*
X84246491Y-73872193D01*
X84245255Y-73849101D01*
X84244340Y-73820705D01*
X84243697Y-73786345D01*
X84243278Y-73745357D01*
X84243035Y-73697081D01*
X84242921Y-73640854D01*
X84242886Y-73576015D01*
X84242884Y-73521487D01*
X84242952Y-73441684D01*
X84243159Y-73371510D01*
X84243505Y-73310826D01*
X84243993Y-73259494D01*
X84244624Y-73217376D01*
X84245401Y-73184331D01*
X84246326Y-73160222D01*
X84247401Y-73144910D01*
X84248235Y-73139382D01*
X84258528Y-73116098D01*
X84275480Y-73097005D01*
X84296755Y-73084562D01*
X84301853Y-73082943D01*
X84311850Y-73080639D01*
X84321356Y-73079754D01*
X84331503Y-73080743D01*
G36*
X83148213Y-72398037D02*
G01*
X83154821Y-72399517D01*
X83167067Y-72404224D01*
X83185878Y-72413181D01*
X83209559Y-72425420D01*
X83236414Y-72439978D01*
X83264748Y-72455886D01*
X83292866Y-72472181D01*
X83319071Y-72487895D01*
X83341669Y-72502064D01*
X83358964Y-72513721D01*
X83368637Y-72521307D01*
X83384432Y-72540576D01*
X83392542Y-72558792D01*
X83393664Y-72566611D01*
X83394617Y-72581306D01*
X83395406Y-72603213D01*
X83396033Y-72632666D01*
X83396503Y-72669999D01*
X83396818Y-72715545D01*
X83396982Y-72769640D01*
X83396998Y-72832618D01*
X83396871Y-72904812D01*
X83396713Y-72956888D01*
X83396471Y-73028210D01*
X83396243Y-73090419D01*
X83395983Y-73144170D01*
X83395644Y-73190121D01*
X83395182Y-73228926D01*
X83394551Y-73261243D01*
X83393704Y-73287727D01*
X83392595Y-73309035D01*
X83391180Y-73325821D01*
X83389412Y-73338743D01*
X83387245Y-73348456D01*
X83384634Y-73355616D01*
X83381533Y-73360880D01*
X83377895Y-73364903D01*
X83373676Y-73368342D01*
X83368829Y-73371852D01*
X83367681Y-73372694D01*
X83350951Y-73380320D01*
X83329228Y-73383907D01*
X83306560Y-73383122D01*
X83290384Y-73379090D01*
X83278861Y-73373713D01*
X83261048Y-73364303D01*
X83238582Y-73351828D01*
X83213100Y-73337256D01*
X83186241Y-73321553D01*
X83159641Y-73305688D01*
X83134939Y-73290629D01*
X83113771Y-73277342D01*
X83097776Y-73266795D01*
X83088591Y-73259956D01*
X83088292Y-73259685D01*
X83083347Y-73255156D01*
X83079032Y-73250910D01*
X83075306Y-73246285D01*
X83072125Y-73240619D01*
X83069446Y-73233250D01*
X83067226Y-73223515D01*
X83065423Y-73210752D01*
X83063992Y-73194298D01*
X83062891Y-73173492D01*
X83062077Y-73147671D01*
X83061507Y-73116174D01*
X83061137Y-73078337D01*
X83060926Y-73033498D01*
X83060829Y-72980996D01*
X83060804Y-72920167D01*
X83060807Y-72850351D01*
X83060807Y-72836840D01*
X83060872Y-72755303D01*
X83061066Y-72683448D01*
X83061391Y-72621190D01*
X83061849Y-72568443D01*
X83062440Y-72525120D01*
X83063165Y-72491137D01*
X83064025Y-72466406D01*
X83065023Y-72450843D01*
X83066003Y-72444692D01*
X83079311Y-72422176D01*
X83098709Y-72406253D01*
X83122308Y-72397886D01*
X83148213Y-72398037D01*
G37*
X83148213Y-72398037D02*
X83154821Y-72399517D01*
X83167067Y-72404224D01*
X83185878Y-72413181D01*
X83209559Y-72425420D01*
X83236414Y-72439978D01*
X83264748Y-72455886D01*
X83292866Y-72472181D01*
X83319071Y-72487895D01*
X83341669Y-72502064D01*
X83358964Y-72513721D01*
X83368637Y-72521307D01*
X83384432Y-72540576D01*
X83392542Y-72558792D01*
X83393664Y-72566611D01*
X83394617Y-72581306D01*
X83395406Y-72603213D01*
X83396033Y-72632666D01*
X83396503Y-72669999D01*
X83396818Y-72715545D01*
X83396982Y-72769640D01*
X83396998Y-72832618D01*
X83396871Y-72904812D01*
X83396713Y-72956888D01*
X83396471Y-73028210D01*
X83396243Y-73090419D01*
X83395983Y-73144170D01*
X83395644Y-73190121D01*
X83395182Y-73228926D01*
X83394551Y-73261243D01*
X83393704Y-73287727D01*
X83392595Y-73309035D01*
X83391180Y-73325821D01*
X83389412Y-73338743D01*
X83387245Y-73348456D01*
X83384634Y-73355616D01*
X83381533Y-73360880D01*
X83377895Y-73364903D01*
X83373676Y-73368342D01*
X83368829Y-73371852D01*
X83367681Y-73372694D01*
X83350951Y-73380320D01*
X83329228Y-73383907D01*
X83306560Y-73383122D01*
X83290384Y-73379090D01*
X83278861Y-73373713D01*
X83261048Y-73364303D01*
X83238582Y-73351828D01*
X83213100Y-73337256D01*
X83186241Y-73321553D01*
X83159641Y-73305688D01*
X83134939Y-73290629D01*
X83113771Y-73277342D01*
X83097776Y-73266795D01*
X83088591Y-73259956D01*
X83088292Y-73259685D01*
X83083347Y-73255156D01*
X83079032Y-73250910D01*
X83075306Y-73246285D01*
X83072125Y-73240619D01*
X83069446Y-73233250D01*
X83067226Y-73223515D01*
X83065423Y-73210752D01*
X83063992Y-73194298D01*
X83062891Y-73173492D01*
X83062077Y-73147671D01*
X83061507Y-73116174D01*
X83061137Y-73078337D01*
X83060926Y-73033498D01*
X83060829Y-72980996D01*
X83060804Y-72920167D01*
X83060807Y-72850351D01*
X83060807Y-72836840D01*
X83060872Y-72755303D01*
X83061066Y-72683448D01*
X83061391Y-72621190D01*
X83061849Y-72568443D01*
X83062440Y-72525120D01*
X83063165Y-72491137D01*
X83064025Y-72466406D01*
X83065023Y-72450843D01*
X83066003Y-72444692D01*
X83079311Y-72422176D01*
X83098709Y-72406253D01*
X83122308Y-72397886D01*
X83148213Y-72398037D01*
D11*
%TO.C,J1*%
X60500000Y-47300000D02*
X75500000Y-47300000D01*
X75500000Y-47300000D02*
X75500000Y-62300000D01*
X75500000Y-62300000D02*
X60500000Y-62300000D01*
X60500000Y-62300000D02*
X60500000Y-47300000D01*
X68000000Y-47500000D02*
X67000000Y-48500000D01*
X68000000Y-47500000D02*
X69000000Y-48500000D01*
%TO.C,TP4*%
X122700000Y-97000000D02*
G75*
G03*
X122700000Y-97000000I-1700000J0D01*
G01*
%TO.C,TP3*%
X116700000Y-97000000D02*
G75*
G03*
X116700000Y-97000000I-1700000J0D01*
G01*
%TO.C,TP2*%
X56700000Y-96645001D02*
G75*
G03*
X56700000Y-96645001I-1700000J0D01*
G01*
%TO.C,TP1*%
X50700000Y-96645001D02*
G75*
G03*
X50700000Y-96645001I-1700000J0D01*
G01*
%TO.C,J8*%
X125680000Y-93355000D02*
X111140000Y-93355000D01*
X111140000Y-93355000D02*
X111140000Y-54035000D01*
X111140000Y-54035000D02*
X125680000Y-54035000D01*
X110245662Y-64250000D02*
X110245662Y-63750000D01*
X110245662Y-63750000D02*
X110678675Y-64000000D01*
X110678675Y-64000000D02*
X110245662Y-64250000D01*
%TO.C,J7*%
X44320000Y-54035000D02*
X58860000Y-54035000D01*
X58860000Y-54035000D02*
X58860000Y-93355000D01*
X58860000Y-93355000D02*
X44320000Y-93355000D01*
X59754338Y-63750000D02*
X59754338Y-64250000D01*
X59754338Y-64250000D02*
X59321325Y-64000000D01*
X59321325Y-64000000D02*
X59754338Y-63750000D01*
%TO.C,J6*%
X109500000Y-99700000D02*
X94500000Y-99700000D01*
X94500000Y-99700000D02*
X94500000Y-84700000D01*
X94500000Y-84700000D02*
X109500000Y-84700000D01*
X109500000Y-84700000D02*
X109500000Y-99700000D01*
X102000000Y-99500000D02*
X103000000Y-98500000D01*
X102000000Y-99500000D02*
X101000000Y-98500000D01*
%TO.C,J5*%
X92500000Y-99700000D02*
X77500000Y-99700000D01*
X77500000Y-99700000D02*
X77500000Y-84700000D01*
X77500000Y-84700000D02*
X92500000Y-84700000D01*
X92500000Y-84700000D02*
X92500000Y-99700000D01*
X85000000Y-99500000D02*
X86000000Y-98500000D01*
X85000000Y-99500000D02*
X84000000Y-98500000D01*
%TO.C,J4*%
X75500000Y-99700000D02*
X60500000Y-99700000D01*
X60500000Y-99700000D02*
X60500000Y-84700000D01*
X60500000Y-84700000D02*
X75500000Y-84700000D01*
X75500000Y-84700000D02*
X75500000Y-99700000D01*
X68000000Y-99500000D02*
X69000000Y-98500000D01*
X68000000Y-99500000D02*
X67000000Y-98500000D01*
%TO.C,J3*%
X94500000Y-47300000D02*
X109500000Y-47300000D01*
X109500000Y-47300000D02*
X109500000Y-62300000D01*
X109500000Y-62300000D02*
X94500000Y-62300000D01*
X94500000Y-62300000D02*
X94500000Y-47300000D01*
X102000000Y-47500000D02*
X101000000Y-48500000D01*
X102000000Y-47500000D02*
X103000000Y-48500000D01*
%TO.C,J2*%
X77500000Y-47300000D02*
X92500000Y-47300000D01*
X92500000Y-47300000D02*
X92500000Y-62300000D01*
X92500000Y-62300000D02*
X77500000Y-62300000D01*
X77500000Y-62300000D02*
X77500000Y-47300000D01*
X85000000Y-47500000D02*
X84000000Y-48500000D01*
X85000000Y-47500000D02*
X86000000Y-48500000D01*
%TO.C,J1*%
D12*
X67357142Y-64452380D02*
X67023809Y-63976190D01*
X66785714Y-64452380D02*
X66785714Y-63452380D01*
X67166666Y-63452380D01*
X67261904Y-63500000D01*
X67309523Y-63547619D01*
X67357142Y-63642857D01*
X67357142Y-63785714D01*
X67309523Y-63880952D01*
X67261904Y-63928571D01*
X67166666Y-63976190D01*
X66785714Y-63976190D01*
X67785714Y-63928571D02*
X68119047Y-63928571D01*
X68261904Y-64452380D02*
X67785714Y-64452380D01*
X67785714Y-63452380D01*
X68261904Y-63452380D01*
X68690476Y-64452380D02*
X68690476Y-63452380D01*
X68928571Y-63452380D01*
X69071428Y-63500000D01*
X69166666Y-63595238D01*
X69214285Y-63690476D01*
X69261904Y-63880952D01*
X69261904Y-64023809D01*
X69214285Y-64214285D01*
X69166666Y-64309523D01*
X69071428Y-64404761D01*
X68928571Y-64452380D01*
X68690476Y-64452380D01*
%TO.C,TP4*%
X120238095Y-93700000D02*
X120142857Y-93652380D01*
X120000000Y-93652380D01*
X119857142Y-93700000D01*
X119761904Y-93795238D01*
X119714285Y-93890476D01*
X119666666Y-94080952D01*
X119666666Y-94223809D01*
X119714285Y-94414285D01*
X119761904Y-94509523D01*
X119857142Y-94604761D01*
X120000000Y-94652380D01*
X120095238Y-94652380D01*
X120238095Y-94604761D01*
X120285714Y-94557142D01*
X120285714Y-94223809D01*
X120095238Y-94223809D01*
X120714285Y-94652380D02*
X120714285Y-93652380D01*
X121285714Y-94652380D01*
X121285714Y-93652380D01*
X121761904Y-94652380D02*
X121761904Y-93652380D01*
X122000000Y-93652380D01*
X122142857Y-93700000D01*
X122238095Y-93795238D01*
X122285714Y-93890476D01*
X122333333Y-94080952D01*
X122333333Y-94223809D01*
X122285714Y-94414285D01*
X122238095Y-94509523D01*
X122142857Y-94604761D01*
X122000000Y-94652380D01*
X121761904Y-94652380D01*
%TO.C,TP3*%
X112333333Y-94604761D02*
X112476190Y-94652380D01*
X112714285Y-94652380D01*
X112809523Y-94604761D01*
X112857142Y-94557142D01*
X112904761Y-94461904D01*
X112904761Y-94366666D01*
X112857142Y-94271428D01*
X112809523Y-94223809D01*
X112714285Y-94176190D01*
X112523809Y-94128571D01*
X112428571Y-94080952D01*
X112380952Y-94033333D01*
X112333333Y-93938095D01*
X112333333Y-93842857D01*
X112380952Y-93747619D01*
X112428571Y-93700000D01*
X112523809Y-93652380D01*
X112761904Y-93652380D01*
X112904761Y-93700000D01*
X113333333Y-94128571D02*
X113666666Y-94128571D01*
X113809523Y-94652380D02*
X113333333Y-94652380D01*
X113333333Y-93652380D01*
X113809523Y-93652380D01*
X114238095Y-94652380D02*
X114238095Y-93652380D01*
X114809523Y-94652380D01*
X114809523Y-93652380D01*
X115238095Y-94604761D02*
X115380952Y-94652380D01*
X115619047Y-94652380D01*
X115714285Y-94604761D01*
X115761904Y-94557142D01*
X115809523Y-94461904D01*
X115809523Y-94366666D01*
X115761904Y-94271428D01*
X115714285Y-94223809D01*
X115619047Y-94176190D01*
X115428571Y-94128571D01*
X115333333Y-94080952D01*
X115285714Y-94033333D01*
X115238095Y-93938095D01*
X115238095Y-93842857D01*
X115285714Y-93747619D01*
X115333333Y-93700000D01*
X115428571Y-93652380D01*
X115666666Y-93652380D01*
X115809523Y-93700000D01*
X116238095Y-94128571D02*
X116571428Y-94128571D01*
X116714285Y-94652380D02*
X116238095Y-94652380D01*
X116238095Y-93652380D01*
X116714285Y-93652380D01*
X117095238Y-93747619D02*
X117142857Y-93700000D01*
X117238095Y-93652380D01*
X117476190Y-93652380D01*
X117571428Y-93700000D01*
X117619047Y-93747619D01*
X117666666Y-93842857D01*
X117666666Y-93938095D01*
X117619047Y-94080952D01*
X117047619Y-94652380D01*
X117666666Y-94652380D01*
%TO.C,TP2*%
X52333333Y-94404761D02*
X52476190Y-94452380D01*
X52714285Y-94452380D01*
X52809523Y-94404761D01*
X52857142Y-94357142D01*
X52904761Y-94261904D01*
X52904761Y-94166666D01*
X52857142Y-94071428D01*
X52809523Y-94023809D01*
X52714285Y-93976190D01*
X52523809Y-93928571D01*
X52428571Y-93880952D01*
X52380952Y-93833333D01*
X52333333Y-93738095D01*
X52333333Y-93642857D01*
X52380952Y-93547619D01*
X52428571Y-93500000D01*
X52523809Y-93452380D01*
X52761904Y-93452380D01*
X52904761Y-93500000D01*
X53333333Y-93928571D02*
X53666666Y-93928571D01*
X53809523Y-94452380D02*
X53333333Y-94452380D01*
X53333333Y-93452380D01*
X53809523Y-93452380D01*
X54238095Y-94452380D02*
X54238095Y-93452380D01*
X54809523Y-94452380D01*
X54809523Y-93452380D01*
X55238095Y-94404761D02*
X55380952Y-94452380D01*
X55619047Y-94452380D01*
X55714285Y-94404761D01*
X55761904Y-94357142D01*
X55809523Y-94261904D01*
X55809523Y-94166666D01*
X55761904Y-94071428D01*
X55714285Y-94023809D01*
X55619047Y-93976190D01*
X55428571Y-93928571D01*
X55333333Y-93880952D01*
X55285714Y-93833333D01*
X55238095Y-93738095D01*
X55238095Y-93642857D01*
X55285714Y-93547619D01*
X55333333Y-93500000D01*
X55428571Y-93452380D01*
X55666666Y-93452380D01*
X55809523Y-93500000D01*
X56238095Y-93928571D02*
X56571428Y-93928571D01*
X56714285Y-94452380D02*
X56238095Y-94452380D01*
X56238095Y-93452380D01*
X56714285Y-93452380D01*
X57666666Y-94452380D02*
X57095238Y-94452380D01*
X57380952Y-94452380D02*
X57380952Y-93452380D01*
X57285714Y-93595238D01*
X57190476Y-93690476D01*
X57095238Y-93738095D01*
%TO.C,TP1*%
X46333333Y-94404761D02*
X46476190Y-94452380D01*
X46714285Y-94452380D01*
X46809523Y-94404761D01*
X46857142Y-94357142D01*
X46904761Y-94261904D01*
X46904761Y-94166666D01*
X46857142Y-94071428D01*
X46809523Y-94023809D01*
X46714285Y-93976190D01*
X46523809Y-93928571D01*
X46428571Y-93880952D01*
X46380952Y-93833333D01*
X46333333Y-93738095D01*
X46333333Y-93642857D01*
X46380952Y-93547619D01*
X46428571Y-93500000D01*
X46523809Y-93452380D01*
X46761904Y-93452380D01*
X46904761Y-93500000D01*
X47333333Y-93928571D02*
X47666666Y-93928571D01*
X47809523Y-94452380D02*
X47333333Y-94452380D01*
X47333333Y-93452380D01*
X47809523Y-93452380D01*
X48238095Y-94452380D02*
X48238095Y-93452380D01*
X48809523Y-94452380D01*
X48809523Y-93452380D01*
X49238095Y-94404761D02*
X49380952Y-94452380D01*
X49619047Y-94452380D01*
X49714285Y-94404761D01*
X49761904Y-94357142D01*
X49809523Y-94261904D01*
X49809523Y-94166666D01*
X49761904Y-94071428D01*
X49714285Y-94023809D01*
X49619047Y-93976190D01*
X49428571Y-93928571D01*
X49333333Y-93880952D01*
X49285714Y-93833333D01*
X49238095Y-93738095D01*
X49238095Y-93642857D01*
X49285714Y-93547619D01*
X49333333Y-93500000D01*
X49428571Y-93452380D01*
X49666666Y-93452380D01*
X49809523Y-93500000D01*
X50238095Y-93928571D02*
X50571428Y-93928571D01*
X50714285Y-94452380D02*
X50238095Y-94452380D01*
X50238095Y-93452380D01*
X50714285Y-93452380D01*
X51333333Y-93452380D02*
X51428571Y-93452380D01*
X51523809Y-93500000D01*
X51571428Y-93547619D01*
X51619047Y-93642857D01*
X51666666Y-93833333D01*
X51666666Y-94071428D01*
X51619047Y-94261904D01*
X51571428Y-94357142D01*
X51523809Y-94404761D01*
X51428571Y-94452380D01*
X51333333Y-94452380D01*
X51238095Y-94404761D01*
X51190476Y-94357142D01*
X51142857Y-94261904D01*
X51095238Y-94071428D01*
X51095238Y-93833333D01*
X51142857Y-93642857D01*
X51190476Y-93547619D01*
X51238095Y-93500000D01*
X51333333Y-93452380D01*
%TO.C,J8*%
X109652380Y-74028333D02*
X110366666Y-74028333D01*
X110509523Y-74075952D01*
X110604761Y-74171190D01*
X110652380Y-74314047D01*
X110652380Y-74409285D01*
X110080952Y-73409285D02*
X110033333Y-73504523D01*
X109985714Y-73552142D01*
X109890476Y-73599761D01*
X109842857Y-73599761D01*
X109747619Y-73552142D01*
X109700000Y-73504523D01*
X109652380Y-73409285D01*
X109652380Y-73218809D01*
X109700000Y-73123571D01*
X109747619Y-73075952D01*
X109842857Y-73028333D01*
X109890476Y-73028333D01*
X109985714Y-73075952D01*
X110033333Y-73123571D01*
X110080952Y-73218809D01*
X110080952Y-73409285D01*
X110128571Y-73504523D01*
X110176190Y-73552142D01*
X110271428Y-73599761D01*
X110461904Y-73599761D01*
X110557142Y-73552142D01*
X110604761Y-73504523D01*
X110652380Y-73409285D01*
X110652380Y-73218809D01*
X110604761Y-73123571D01*
X110557142Y-73075952D01*
X110461904Y-73028333D01*
X110271428Y-73028333D01*
X110176190Y-73075952D01*
X110128571Y-73123571D01*
X110080952Y-73218809D01*
%TO.C,J7*%
X59252380Y-74028333D02*
X59966666Y-74028333D01*
X60109523Y-74075952D01*
X60204761Y-74171190D01*
X60252380Y-74314047D01*
X60252380Y-74409285D01*
X59252380Y-73647380D02*
X59252380Y-72980714D01*
X60252380Y-73409285D01*
%TO.C,J6*%
X99785714Y-83452380D02*
X99785714Y-82452380D01*
X99785714Y-82928571D02*
X100357142Y-82928571D01*
X100357142Y-83452380D02*
X100357142Y-82452380D01*
X100785714Y-83404761D02*
X100928571Y-83452380D01*
X101166666Y-83452380D01*
X101261904Y-83404761D01*
X101309523Y-83357142D01*
X101357142Y-83261904D01*
X101357142Y-83166666D01*
X101309523Y-83071428D01*
X101261904Y-83023809D01*
X101166666Y-82976190D01*
X100976190Y-82928571D01*
X100880952Y-82880952D01*
X100833333Y-82833333D01*
X100785714Y-82738095D01*
X100785714Y-82642857D01*
X100833333Y-82547619D01*
X100880952Y-82500000D01*
X100976190Y-82452380D01*
X101214285Y-82452380D01*
X101357142Y-82500000D01*
X101976190Y-82976190D02*
X101976190Y-83452380D01*
X101642857Y-82452380D02*
X101976190Y-82976190D01*
X102309523Y-82452380D01*
X102642857Y-83452380D02*
X102642857Y-82452380D01*
X103214285Y-83452380D01*
X103214285Y-82452380D01*
X104261904Y-83357142D02*
X104214285Y-83404761D01*
X104071428Y-83452380D01*
X103976190Y-83452380D01*
X103833333Y-83404761D01*
X103738095Y-83309523D01*
X103690476Y-83214285D01*
X103642857Y-83023809D01*
X103642857Y-82880952D01*
X103690476Y-82690476D01*
X103738095Y-82595238D01*
X103833333Y-82500000D01*
X103976190Y-82452380D01*
X104071428Y-82452380D01*
X104214285Y-82500000D01*
X104261904Y-82547619D01*
%TO.C,J5*%
X83380952Y-83357142D02*
X83333333Y-83404761D01*
X83190476Y-83452380D01*
X83095238Y-83452380D01*
X82952380Y-83404761D01*
X82857142Y-83309523D01*
X82809523Y-83214285D01*
X82761904Y-83023809D01*
X82761904Y-82880952D01*
X82809523Y-82690476D01*
X82857142Y-82595238D01*
X82952380Y-82500000D01*
X83095238Y-82452380D01*
X83190476Y-82452380D01*
X83333333Y-82500000D01*
X83380952Y-82547619D01*
X83761904Y-83404761D02*
X83904761Y-83452380D01*
X84142857Y-83452380D01*
X84238095Y-83404761D01*
X84285714Y-83357142D01*
X84333333Y-83261904D01*
X84333333Y-83166666D01*
X84285714Y-83071428D01*
X84238095Y-83023809D01*
X84142857Y-82976190D01*
X83952380Y-82928571D01*
X83857142Y-82880952D01*
X83809523Y-82833333D01*
X83761904Y-82738095D01*
X83761904Y-82642857D01*
X83809523Y-82547619D01*
X83857142Y-82500000D01*
X83952380Y-82452380D01*
X84190476Y-82452380D01*
X84333333Y-82500000D01*
X84952380Y-82976190D02*
X84952380Y-83452380D01*
X84619047Y-82452380D02*
X84952380Y-82976190D01*
X85285714Y-82452380D01*
X85619047Y-83452380D02*
X85619047Y-82452380D01*
X86190476Y-83452380D01*
X86190476Y-82452380D01*
X87238095Y-83357142D02*
X87190476Y-83404761D01*
X87047619Y-83452380D01*
X86952380Y-83452380D01*
X86809523Y-83404761D01*
X86714285Y-83309523D01*
X86666666Y-83214285D01*
X86619047Y-83023809D01*
X86619047Y-82880952D01*
X86666666Y-82690476D01*
X86714285Y-82595238D01*
X86809523Y-82500000D01*
X86952380Y-82452380D01*
X87047619Y-82452380D01*
X87190476Y-82500000D01*
X87238095Y-82547619D01*
%TO.C,J4*%
X65738095Y-82452380D02*
X66071428Y-83452380D01*
X66404761Y-82452380D01*
X66690476Y-83404761D02*
X66833333Y-83452380D01*
X67071428Y-83452380D01*
X67166666Y-83404761D01*
X67214285Y-83357142D01*
X67261904Y-83261904D01*
X67261904Y-83166666D01*
X67214285Y-83071428D01*
X67166666Y-83023809D01*
X67071428Y-82976190D01*
X66880952Y-82928571D01*
X66785714Y-82880952D01*
X66738095Y-82833333D01*
X66690476Y-82738095D01*
X66690476Y-82642857D01*
X66738095Y-82547619D01*
X66785714Y-82500000D01*
X66880952Y-82452380D01*
X67119047Y-82452380D01*
X67261904Y-82500000D01*
X67880952Y-82976190D02*
X67880952Y-83452380D01*
X67547619Y-82452380D02*
X67880952Y-82976190D01*
X68214285Y-82452380D01*
X68547619Y-83452380D02*
X68547619Y-82452380D01*
X69119047Y-83452380D01*
X69119047Y-82452380D01*
X70166666Y-83357142D02*
X70119047Y-83404761D01*
X69976190Y-83452380D01*
X69880952Y-83452380D01*
X69738095Y-83404761D01*
X69642857Y-83309523D01*
X69595238Y-83214285D01*
X69547619Y-83023809D01*
X69547619Y-82880952D01*
X69595238Y-82690476D01*
X69642857Y-82595238D01*
X69738095Y-82500000D01*
X69880952Y-82452380D01*
X69976190Y-82452380D01*
X70119047Y-82500000D01*
X70166666Y-82547619D01*
%TO.C,J3*%
X101238095Y-63500000D02*
X101142857Y-63452380D01*
X101000000Y-63452380D01*
X100857142Y-63500000D01*
X100761904Y-63595238D01*
X100714285Y-63690476D01*
X100666666Y-63880952D01*
X100666666Y-64023809D01*
X100714285Y-64214285D01*
X100761904Y-64309523D01*
X100857142Y-64404761D01*
X101000000Y-64452380D01*
X101095238Y-64452380D01*
X101238095Y-64404761D01*
X101285714Y-64357142D01*
X101285714Y-64023809D01*
X101095238Y-64023809D01*
X102285714Y-64452380D02*
X101952380Y-63976190D01*
X101714285Y-64452380D02*
X101714285Y-63452380D01*
X102095238Y-63452380D01*
X102190476Y-63500000D01*
X102238095Y-63547619D01*
X102285714Y-63642857D01*
X102285714Y-63785714D01*
X102238095Y-63880952D01*
X102190476Y-63928571D01*
X102095238Y-63976190D01*
X101714285Y-63976190D01*
X102714285Y-64452380D02*
X102714285Y-63452380D01*
X103285714Y-64452380D01*
X103285714Y-63452380D01*
%TO.C,J2*%
X84285714Y-63928571D02*
X84428571Y-63976190D01*
X84476190Y-64023809D01*
X84523809Y-64119047D01*
X84523809Y-64261904D01*
X84476190Y-64357142D01*
X84428571Y-64404761D01*
X84333333Y-64452380D01*
X83952380Y-64452380D01*
X83952380Y-63452380D01*
X84285714Y-63452380D01*
X84380952Y-63500000D01*
X84428571Y-63547619D01*
X84476190Y-63642857D01*
X84476190Y-63738095D01*
X84428571Y-63833333D01*
X84380952Y-63880952D01*
X84285714Y-63928571D01*
X83952380Y-63928571D01*
X85095238Y-64452380D02*
X85000000Y-64404761D01*
X84952380Y-64309523D01*
X84952380Y-63452380D01*
X85476190Y-63452380D02*
X85476190Y-64261904D01*
X85523809Y-64357142D01*
X85571428Y-64404761D01*
X85666666Y-64452380D01*
X85857142Y-64452380D01*
X85952380Y-64404761D01*
X86000000Y-64357142D01*
X86047619Y-64261904D01*
X86047619Y-63452380D01*
%TD*%
M02*
