%TF.GenerationSoftware,KiCad,Pcbnew,(5.1.10)-1*%
%TF.CreationDate,2022-04-27T21:55:14-04:00*%
%TF.ProjectId,Macintosh II Video Breakout,4d616369-6e74-46f7-9368-204949205669,rev?*%
%TF.SameCoordinates,Original*%
%TF.FileFunction,Copper,L1,Top*%
%TF.FilePolarity,Positive*%
%FSLAX46Y46*%
G04 Gerber Fmt 4.6, Leading zero omitted, Abs format (unit mm)*
G04 Created by KiCad (PCBNEW (5.1.10)-1) date 2022-04-27 21:55:14*
%MOMM*%
%LPD*%
G01*
G04 APERTURE LIST*
%TA.AperFunction,ComponentPad*%
%ADD10O,1.600000X2.500000*%
%TD*%
%TA.AperFunction,ComponentPad*%
%ADD11O,3.500000X7.000000*%
%TD*%
%TA.AperFunction,ComponentPad*%
%ADD12C,2.800000*%
%TD*%
%TA.AperFunction,ComponentPad*%
%ADD13C,4.000000*%
%TD*%
%TA.AperFunction,ComponentPad*%
%ADD14C,1.600000*%
%TD*%
%TA.AperFunction,ComponentPad*%
%ADD15R,1.600000X1.600000*%
%TD*%
%TA.AperFunction,ViaPad*%
%ADD16C,0.800000*%
%TD*%
%TA.AperFunction,Conductor*%
%ADD17C,0.250000*%
%TD*%
G04 APERTURE END LIST*
D10*
%TO.P,J1,2*%
%TO.N,GND*%
X65460000Y-60000000D03*
%TO.P,J1,1*%
%TO.N,RED.VID*%
X68000000Y-60000000D03*
D11*
%TO.P,J1,2*%
%TO.N,GND*%
X73080000Y-54920000D03*
X62920000Y-54920000D03*
%TD*%
D12*
%TO.P,TP4,1*%
%TO.N,GND*%
X121000000Y-97000000D03*
%TD*%
%TO.P,TP3,1*%
%TO.N,SENSE2*%
X115000000Y-97000000D03*
%TD*%
%TO.P,TP2,1*%
%TO.N,SENSE1*%
X55000000Y-96645001D03*
%TD*%
%TO.P,TP1,1*%
%TO.N,SENSE0*%
X49000000Y-96645001D03*
%TD*%
D13*
%TO.P,J8,0*%
%TO.N,N/C*%
X114420000Y-57045000D03*
X114420000Y-90345000D03*
D14*
%TO.P,J8,15*%
%TO.N,HSYNC*%
X115840000Y-82005000D03*
%TO.P,J8,14*%
%TO.N,GND*%
X115840000Y-79235000D03*
%TO.P,J8,13*%
X115840000Y-76465000D03*
%TO.P,J8,12*%
%TO.N,VSYNC*%
X115840000Y-73695000D03*
%TO.P,J8,11*%
%TO.N,GND*%
X115840000Y-70925000D03*
%TO.P,J8,10*%
%TO.N,SENSE2*%
X115840000Y-68155000D03*
%TO.P,J8,9*%
%TO.N,BLU.VID*%
X115840000Y-65385000D03*
%TO.P,J8,8*%
%TO.N,Net-(J8-Pad8)*%
X113000000Y-83390000D03*
%TO.P,J8,7*%
%TO.N,SENSE1*%
X113000000Y-80620000D03*
%TO.P,J8,6*%
%TO.N,GND*%
X113000000Y-77850000D03*
%TO.P,J8,5*%
%TO.N,GRN.VID*%
X113000000Y-75080000D03*
%TO.P,J8,4*%
%TO.N,SENSE0*%
X113000000Y-72310000D03*
%TO.P,J8,3*%
%TO.N,CSYNC*%
X113000000Y-69540000D03*
%TO.P,J8,2*%
%TO.N,RED.VID*%
X113000000Y-66770000D03*
D15*
%TO.P,J8,1*%
%TO.N,GND*%
X113000000Y-64000000D03*
%TD*%
D13*
%TO.P,J7,0*%
%TO.N,N/C*%
X55580000Y-90345000D03*
X55580000Y-57045000D03*
D14*
%TO.P,J7,15*%
%TO.N,HSYNC*%
X54160000Y-82005000D03*
%TO.P,J7,14*%
%TO.N,GND*%
X54160000Y-79235000D03*
%TO.P,J7,13*%
X54160000Y-76465000D03*
%TO.P,J7,12*%
%TO.N,VSYNC*%
X54160000Y-73695000D03*
%TO.P,J7,11*%
%TO.N,GND*%
X54160000Y-70925000D03*
%TO.P,J7,10*%
%TO.N,SENSE2*%
X54160000Y-68155000D03*
%TO.P,J7,9*%
%TO.N,BLU.VID*%
X54160000Y-65385000D03*
%TO.P,J7,8*%
%TO.N,Net-(J7-Pad8)*%
X57000000Y-83390000D03*
%TO.P,J7,7*%
%TO.N,SENSE1*%
X57000000Y-80620000D03*
%TO.P,J7,6*%
%TO.N,GND*%
X57000000Y-77850000D03*
%TO.P,J7,5*%
%TO.N,GRN.VID*%
X57000000Y-75080000D03*
%TO.P,J7,4*%
%TO.N,SENSE0*%
X57000000Y-72310000D03*
%TO.P,J7,3*%
%TO.N,CSYNC*%
X57000000Y-69540000D03*
%TO.P,J7,2*%
%TO.N,RED.VID*%
X57000000Y-66770000D03*
D15*
%TO.P,J7,1*%
%TO.N,GND*%
X57000000Y-64000000D03*
%TD*%
D10*
%TO.P,J6,2*%
%TO.N,GND*%
X104540000Y-87000000D03*
%TO.P,J6,1*%
%TO.N,HSYNC*%
X102000000Y-87000000D03*
D11*
%TO.P,J6,2*%
%TO.N,GND*%
X96920000Y-92080000D03*
X107080000Y-92080000D03*
%TD*%
D10*
%TO.P,J5,2*%
%TO.N,GND*%
X87540000Y-87000000D03*
%TO.P,J5,1*%
%TO.N,CSYNC*%
X85000000Y-87000000D03*
D11*
%TO.P,J5,2*%
%TO.N,GND*%
X79920000Y-92080000D03*
X90080000Y-92080000D03*
%TD*%
D10*
%TO.P,J4,2*%
%TO.N,GND*%
X70540000Y-87000000D03*
%TO.P,J4,1*%
%TO.N,VSYNC*%
X68000000Y-87000000D03*
D11*
%TO.P,J4,2*%
%TO.N,GND*%
X62920000Y-92080000D03*
X73080000Y-92080000D03*
%TD*%
D10*
%TO.P,J3,2*%
%TO.N,GND*%
X99460000Y-60000000D03*
%TO.P,J3,1*%
%TO.N,GRN.VID*%
X102000000Y-60000000D03*
D11*
%TO.P,J3,2*%
%TO.N,GND*%
X107080000Y-54920000D03*
X96920000Y-54920000D03*
%TD*%
D10*
%TO.P,J2,2*%
%TO.N,GND*%
X82460000Y-60000000D03*
%TO.P,J2,1*%
%TO.N,BLU.VID*%
X85000000Y-60000000D03*
D11*
%TO.P,J2,2*%
%TO.N,GND*%
X90080000Y-54920000D03*
X79920000Y-54920000D03*
%TD*%
D16*
%TO.N,RED.VID*%
X68230000Y-66770000D03*
%TO.N,BLU.VID*%
X84615000Y-65385000D03*
%TO.N,GRN.VID*%
X101920000Y-75080000D03*
%TO.N,VSYNC*%
X67305000Y-73695000D03*
%TO.N,CSYNC*%
X85460000Y-69540000D03*
%TD*%
D17*
%TO.N,RED.VID*%
X57000000Y-66770000D02*
X68230000Y-66770000D01*
X68230000Y-66770000D02*
X113000000Y-66770000D01*
%TO.N,BLU.VID*%
X54160000Y-65385000D02*
X84615000Y-65385000D01*
X84615000Y-65385000D02*
X115840000Y-65385000D01*
%TO.N,GRN.VID*%
X57000000Y-75080000D02*
X101920000Y-75080000D01*
X101920000Y-75080000D02*
X113000000Y-75080000D01*
%TO.N,VSYNC*%
X54160000Y-73695000D02*
X67305000Y-73695000D01*
X67305000Y-73695000D02*
X115840000Y-73695000D01*
%TO.N,CSYNC*%
X57000000Y-69540000D02*
X85460000Y-69540000D01*
X85460000Y-69540000D02*
X113000000Y-69540000D01*
%TO.N,HSYNC*%
X57280002Y-82005000D02*
X115840000Y-82005000D01*
X54160000Y-82005000D02*
X57280002Y-82005000D01*
X102000000Y-87000000D02*
X102000000Y-82000000D01*
%TO.N,SENSE2*%
X54160000Y-68155000D02*
X115840000Y-68155000D01*
X115965001Y-96645001D02*
X118000000Y-94610002D01*
X118000000Y-70315000D02*
X115840000Y-68155000D01*
X118000000Y-94610002D02*
X118000000Y-70315000D01*
%TO.N,SENSE1*%
X57000000Y-80620000D02*
X113000000Y-80620000D01*
X57000000Y-80620000D02*
X53380000Y-80620000D01*
X53380000Y-80620000D02*
X52000000Y-82000000D01*
X52000000Y-94730000D02*
X53915001Y-96645001D01*
X52000000Y-82000000D02*
X52000000Y-94730000D01*
%TO.N,SENSE0*%
X57000000Y-72310000D02*
X113000000Y-72310000D01*
X57000000Y-72310000D02*
X52690000Y-72310000D01*
X48865001Y-76134999D02*
X48865001Y-96645001D01*
X52690000Y-72310000D02*
X48865001Y-76134999D01*
%TD*%
M02*
