M48
; DRILL file {KiCad (5.1.10)-1} date 04/27/22 21:55:19
; FORMAT={-:-/ absolute / metric / decimal}
; #@! TF.CreationDate,2022-04-27T21:55:19-04:00
; #@! TF.GenerationSoftware,Kicad,Pcbnew,(5.1.10)-1
; #@! TF.FileFunction,Plated,1,2,PTH
FMAT,2
METRIC
T1C0.400
T2C0.890
T3C1.000
T4C1.400
T5C2.010
T6C3.200
%
G90
G05
T1
X67.305Y-73.695
X68.23Y-66.77
X84.615Y-65.385
X85.46Y-69.54
X101.92Y-75.08
T2
X65.46Y-60.0
X68.0Y-60.0
X68.0Y-87.0
X70.54Y-87.0
X82.46Y-60.0
X85.0Y-60.0
X85.0Y-87.0
X87.54Y-87.0
X99.46Y-60.0
X102.0Y-60.0
X102.0Y-87.0
X104.54Y-87.0
T3
X54.16Y-65.385
X54.16Y-68.155
X54.16Y-70.925
X54.16Y-73.695
X54.16Y-76.465
X54.16Y-79.235
X54.16Y-82.005
X57.0Y-64.0
X57.0Y-66.77
X57.0Y-69.54
X57.0Y-72.31
X57.0Y-75.08
X57.0Y-77.85
X57.0Y-80.62
X57.0Y-83.39
X113.0Y-64.0
X113.0Y-66.77
X113.0Y-69.54
X113.0Y-72.31
X113.0Y-75.08
X113.0Y-77.85
X113.0Y-80.62
X113.0Y-83.39
X115.84Y-65.385
X115.84Y-68.155
X115.84Y-70.925
X115.84Y-73.695
X115.84Y-76.465
X115.84Y-79.235
X115.84Y-82.005
T4
X49.0Y-96.645
X55.0Y-96.645
X115.0Y-97.0
X121.0Y-97.0
T5
X62.92Y-54.92
X62.92Y-92.08
X73.08Y-54.92
X73.08Y-92.08
X79.92Y-54.92
X79.92Y-92.08
X90.08Y-54.92
X90.08Y-92.08
X96.92Y-54.92
X96.92Y-92.08
X107.08Y-54.92
X107.08Y-92.08
T6
X55.58Y-57.045
X55.58Y-90.345
X114.42Y-57.045
X114.42Y-90.345
T0
M30
